<svg width="24" height="24" viewBox="0 0 24 24" fill="none" xmlns="http://www.w3.org/2000/svg">
    <path fill-rule="evenodd" clip-rule="evenodd" d="M4.41536 8.65819C4 9.41702 4 10.3324 4 12.1631V13.38C4 16.5007 4 18.061 4.93726 19.0305C5.87452 20 7.38301 20 10.4 20H13.6C16.617 20 18.1255 20 19.0627 19.0305C20 18.061 20 16.5007 20 13.38V12.1631C20 10.3324 20 9.41702 19.5846 8.65819C19.1693 7.89937 18.4104 7.42841 16.8928 6.4865L15.2928 5.4935C13.6885 4.49783 12.8863 4 12 4C11.1137 4 10.3115 4.49783 8.70723 5.4935L7.10723 6.4865C5.58956 7.42841 4.83072 7.89937 4.41536 8.65819ZM9.95729 14.718C9.69108 14.5207 9.31531 14.5765 9.11798 14.8427C8.92065 15.1089 8.9765 15.4847 9.24271 15.682C10.0206 16.2586 10.972 16.6 12 16.6C13.028 16.6 13.9794 16.2586 14.7573 15.682C15.0235 15.4847 15.0793 15.1089 14.882 14.8427C14.6847 14.5765 14.3089 14.5207 14.0427 14.718C13.46 15.1499 12.7567 15.4 12 15.4C11.2433 15.4 10.54 15.1499 9.95729 14.718Z" fill="#ffff"/>
</svg>
